<?xml version="1.0" encoding="UTF-8"?>
<svg width="48" height="48" version="1.1" viewBox="0 0 12.7 12.7" xmlns="http://www.w3.org/2000/svg" xmlns:xlink="http://www.w3.org/1999/xlink"><defs><linearGradient id="a" x1="2.2651" x2="11.42" y1="6.441" y2="6.441" gradientUnits="userSpaceOnUse"><stop stop-color="#ece46e" offset="0"/><stop stop-color="#f1f0cb" offset="1"/></linearGradient></defs><g stroke-linejoin="round"><path d="m6.6354 1.1037c-1.1346-0.0042-2.4115 0.31103-3.4355 1.0942-1.091e-4 8.36e-5 -4.146e-4 -8.35e-5 -5.238e-4 0-0.75902-0.69231-2.3551-1.2185-2.7929-1.0728-0.51895 0.17261-0.15669 1.5257-0.15669 1.5257s0.2676-0.36415 1.4305-0.44257c0.50629-0.03414 0.9102 0.19283 1.1857 0.3051-2.0588 1.7534-2.0057 4.7496-1.1758 5.8088 0.24333 0.31059 0.61809 0.48297 1.0781 0.52922 0.76434 1.1359 7.1048 4.4253 9.1733 2.6535 2.0721-1.7749-1.6111-7.7432-2.3909-8.8503-6.799e-4 -9.618e-4 -9.599e-4 -8.351e-4 -0.001571-0.0015808-0.037139-0.24892-0.12491-0.4712-0.26979-0.65612-0.41745-0.53285-1.4518-0.88868-2.6439-0.89309z" fill="#221e1b" stroke="#fff8c5" stroke-linecap="square" stroke-width=".164" style="paint-order:markers fill stroke"/><path d="m2.5328 3.9734 3.6754 4.0142 2.1821-1.019 3.2544 4.5369-2.7729-6.9835-2.5364 1.6344-1.9254-3.8268z" fill="url(#a)" stroke="#000" stroke-opacity=".085691" stroke-width=".465" style="paint-order:normal"/></g></svg>
