<?xml version="1.0" encoding="UTF-8"?>
<svg width="48" height="48" version="1.1" viewBox="0 0 12.7 12.7" xmlns="http://www.w3.org/2000/svg"><defs><linearGradient id="a" x1="2.2651" x2="11.42" y1="6.441" y2="6.441" gradientUnits="userSpaceOnUse"><stop stop-color="#ece46e" offset="0"/><stop stop-color="#f1f0cb" offset="1"/></linearGradient></defs><g stroke-linejoin="round"><path d="m6.6338 1.1527c-1.1125-0.0041156-2.3646 0.30495-3.3687 1.0728-1.069e-4 8.2e-5 -4.065e-4 -8.18e-5 -5.136e-4 0-0.74426-0.67878-2.3093-1.1947-2.7386-1.0518-0.50886 0.16924-0.15364 1.4959-0.15364 1.4959s0.2624-0.35703 1.4027-0.43392c0.49645-0.033473 0.89251 0.18906 1.1627 0.29914-2.0188 1.7191-1.9667 4.6568-1.1529 5.6953 0.2386 0.30452 0.60607 0.47353 1.0571 0.51888 0.74948 1.1137 6.9667 4.3388 8.995 2.6016 2.0318-1.7402-1.5798-7.5919-2.3444-8.6774-6.668e-4 -9.431e-4 -9.413e-4 -8.188e-4 -0.0015396-0.0015492-0.036417-0.24406-0.12248-0.46199-0.26455-0.6433-0.40933-0.52244-1.4236-0.87131-2.5925-0.87564z" fill="#221e1b" stroke="#fff8c5" stroke-linecap="square" stroke-width=".48154" style="paint-order:markers fill stroke"/><path d="m2.4533 3.8345 3.604 3.9358 2.1397-0.99909 3.1911 4.4482-2.719-6.847-2.4871 1.6025-1.888-3.752z" fill="url(#a)" stroke="#000" stroke-opacity=".085691" stroke-width=".44316" style="paint-order:normal"/></g></svg>
